<svg width="244" height="217" viewBox="0 0 244 217" fill="none" xmlns="http://www.w3.org/2000/svg">
<path d="M231.809 154.05C235.618 153.808 238.99 153.593 242.363 153.379C242.644 153.362 242.928 153.331 243.208 153.355C243.707 153.396 244.004 153.607 243.999 154.194C243.977 156.655 243.982 159.117 244 161.579C244.004 162.212 243.694 162.48 243.113 162.505C240.837 162.604 238.562 162.691 236.286 162.792C231.337 163.015 226.39 163.253 221.441 163.461C220.72 163.491 220.282 163.825 219.904 164.394C217.969 167.298 216.07 170.227 214.054 173.075C210.424 178.201 206.22 182.843 201.621 187.104C198.564 189.936 195.37 192.637 192.089 195.205C189.644 197.118 186.991 198.772 184.38 200.463C179.346 203.72 174.016 206.414 168.471 208.697C164.911 210.163 161.317 211.523 157.593 212.51C154.696 213.278 151.791 214.02 148.874 214.707C144.112 215.83 139.264 216.45 134.392 216.741C127.823 217.135 121.246 217.142 114.698 216.32C111.768 215.951 108.82 215.63 105.929 215.045C102.578 214.366 99.2544 213.512 95.9678 212.563C93.0647 211.726 90.1954 210.742 87.3713 209.665C82.9863 207.994 78.6929 206.094 74.6351 203.728C71.1976 201.724 67.7573 199.705 64.465 197.479C61.755 195.646 59.227 193.536 56.6763 191.478C52.9808 188.497 49.5715 185.199 46.4189 181.658C44.0529 179 41.8562 176.191 39.6285 173.412C38.946 172.561 38.2805 172.026 37.0694 172.04C33.3569 172.086 29.653 171.761 25.9941 171.145C20.6503 170.244 15.4856 168.71 10.6593 166.207C6.74245 164.173 3.14846 161.68 0.269317 158.276C0.14383 158.129 0.0888278 157.924 0 157.745C0.211495 157.696 0.425826 157.593 0.634501 157.604C5.46222 157.849 10.2885 158.254 15.1261 157.78C17.4356 157.555 19.7649 157.455 22.0561 157.104C24.0159 156.805 25.9433 156.266 27.8651 155.756C28.5969 155.562 28.6011 155.279 28.2811 154.6C27.6226 153.204 26.9656 151.802 26.3931 150.371C25.5147 148.175 24.6053 145.985 23.8961 143.734C22.7921 140.229 21.7727 136.695 20.8576 133.138C20.2344 130.714 19.7367 128.244 19.3842 125.767C18.9062 122.406 18.5551 119.023 18.2703 115.641C18.0715 113.262 17.9418 110.862 18.0193 108.481C18.1575 104.15 18.2999 99.8074 18.768 95.5045C19.1755 91.7632 19.9722 88.0585 20.7138 84.3609C21.65 79.6921 23.0289 75.1288 24.7717 70.7063C26.3494 66.7074 28.1105 62.7663 30.0182 58.9138C31.5818 55.7581 33.371 52.7009 35.259 49.7254C37.9971 45.4112 41.0864 41.3406 44.4562 37.4867C47.919 33.5273 51.6089 29.7945 55.6034 26.3671C58.804 23.6196 62.1484 21.0592 65.631 18.6706C69.6593 15.9076 73.8723 13.4683 78.2446 11.3035C82.9806 8.95995 87.8253 6.84299 92.8842 5.30594C96.7377 4.13486 100.653 3.14818 104.581 2.24594C110.404 0.907364 116.326 0.290833 122.302 0.0867462C127.215 -0.0821686 132.116 -0.0244598 137.006 0.438629C139.598 0.683548 142.192 0.987564 144.754 1.43658C147.661 1.94611 150.562 2.54152 153.414 3.29173C156.764 4.17427 160.106 5.13985 163.367 6.30109C166.589 7.44823 169.775 8.74316 172.853 10.2309C176.563 12.0256 180.203 13.9835 183.759 16.0681C187.496 18.261 191.006 20.8101 194.399 23.5168C199.049 27.2271 203.409 31.2541 207.344 35.7034C210.1 38.8225 212.748 42.0584 215.214 45.4112C218.787 50.2701 221.887 55.4471 224.455 60.9069C226.088 64.3793 227.55 67.9348 228.963 71.503C229.837 73.7142 230.559 75.9959 231.199 78.2874C231.908 80.828 232.505 83.4024 233.042 85.9852C233.603 88.6863 234.15 91.4001 234.494 94.1335C234.876 97.1752 235.175 100.244 235.236 103.305C235.329 107.918 235.292 112.54 235.096 117.15C234.979 119.876 234.519 122.598 234.085 125.301C233.655 127.977 233.088 130.631 232.53 133.283C232.163 135.019 231.771 136.754 231.272 138.454C230.673 140.491 229.984 142.504 229.267 144.504C228.526 146.575 227.716 148.621 226.91 150.668C226.601 151.45 226.236 152.213 225.868 152.972C225.531 153.67 225.738 154.043 226.533 154.047C228.435 154.057 230.336 154.05 231.809 154.05ZM168.926 51.8198C179.615 51.8198 190.303 51.8212 200.99 51.8198C202.334 51.8184 202.333 51.8128 202.688 53.0514C202.733 53.209 202.806 53.3582 202.852 53.5159C203.33 55.2035 203.798 56.8954 204.283 58.5802C204.734 60.1525 205.177 61.7275 205.676 63.2843C205.928 64.0739 205.894 64.157 205.04 64.1457C200.769 64.0908 196.497 64.0078 192.225 64.012C189.36 64.0148 186.492 64.0767 183.632 64.2414C179.556 64.4765 175.491 64.9142 171.415 65.1085C167.36 65.3013 163.381 65.8094 159.608 67.3563C157.408 68.2586 155.192 69.1819 153.138 70.3642C148.973 72.7613 145.315 75.8284 141.957 79.2684C136.965 84.3806 132.965 90.1474 129.966 96.6347C128.79 99.1782 127.38 101.617 126.011 104.067C124.668 106.474 123.263 108.847 121.843 111.21C120.508 113.432 119.16 115.649 117.746 117.821C116.022 120.469 114.268 123.101 112.443 125.681C109.482 129.868 106.519 134.057 103.432 138.152C101.021 141.348 98.4437 144.421 95.9001 147.516C92.6897 151.428 89.4608 155.341 85.2676 158.273C83.1216 159.772 80.9122 161.198 78.6309 162.48C76.6344 163.602 74.5364 164.567 72.4144 165.437C70.1641 166.36 67.8475 167.128 65.5337 167.885C64.0434 168.373 62.515 168.749 60.9922 169.124C59.5386 169.482 58.0722 169.801 56.603 170.089C54.8575 170.434 53.0979 170.715 51.3509 171.055C50.7362 171.173 50.6121 171.598 51.0167 172.078C51.3932 172.526 51.7922 172.955 52.1814 173.391C56.4888 178.235 61.1135 182.75 66.3008 186.647C69.1616 188.8 72.0985 190.867 75.1257 192.777C77.5509 194.305 80.1396 195.583 82.6986 196.886C84.8404 197.977 87.0202 199.006 89.2324 199.95C91.1796 200.781 93.1704 201.522 95.1825 202.183C97.6231 202.982 100.086 203.727 102.576 204.359C105.024 204.981 107.501 205.519 109.993 205.932C112.721 206.386 115.472 206.791 118.228 206.965C121.858 207.196 125.501 207.215 129.14 207.264C133.779 207.324 138.364 206.691 142.941 206.025C144.124 205.854 145.3 205.621 146.466 205.355C148.427 204.909 150.384 204.435 152.333 203.932C153.802 203.554 155.274 203.171 156.712 202.689C158.498 202.091 160.261 201.414 162.016 200.726C164.014 199.943 166.047 199.221 167.968 198.275C171.005 196.779 173.978 195.153 176.946 193.521C180.752 191.426 184.277 188.897 187.694 186.232C193.251 181.897 198.292 177.014 202.775 171.575C204.489 169.498 206.117 167.349 207.753 165.208C207.939 164.963 207.999 164.542 207.944 164.235C207.92 164.106 207.44 163.973 207.173 163.985C202.646 164.175 198.12 164.394 193.592 164.593C188.525 164.814 183.455 165.006 178.387 165.236C171.772 165.534 165.158 165.855 158.543 166.172C155.191 166.332 151.836 166.493 148.483 166.677C146.693 166.776 144.936 166.793 143.24 166.031C140.623 164.856 138.116 163.509 135.828 161.765C132.229 159.022 129.363 155.65 127.196 151.707C125.937 149.415 124.848 147.029 124.221 144.469C123.737 142.498 123.2 140.536 122.83 138.543C122.546 137.005 122.389 135.427 122.344 133.862C122.274 131.452 122.237 129.029 122.391 126.625C122.56 123.992 122.969 121.374 123.259 118.747C123.341 118.013 123.476 117.897 124.187 118.007C128.907 118.735 133.565 118.345 138.124 117.022C140.637 116.294 143.051 115.276 145.349 113.981C147.995 112.489 150.439 110.74 152.667 108.69C156.351 105.301 159.339 101.361 161.879 97.0556C163.979 93.4973 165.685 89.7575 167.14 85.9078C168.071 83.4432 168.773 80.8927 169.564 78.376C169.809 77.5962 170.012 76.8038 170.226 76.0141C170.411 75.3301 170.755 74.9782 171.56 74.9754C173.602 74.9698 175.646 74.8895 177.687 74.7741C182.844 74.4856 188.005 74.2322 193.154 73.8297C197.385 73.4975 201.604 72.9823 205.825 72.522C206.355 72.4643 206.557 72.5882 206.561 73.1273C206.588 77.0023 206.228 80.8322 205.505 84.6467C204.945 87.6011 204.211 90.4908 203.259 93.3383C201.56 98.4252 199.026 103.084 195.889 107.411C193.527 110.667 190.764 113.57 187.613 116.087C185.118 118.08 182.495 119.89 179.584 121.233C177.74 122.083 175.875 122.918 173.954 123.571C172.124 124.195 170.229 124.667 168.329 125.035C166.608 125.367 164.842 125.457 163.099 125.682C162.518 125.757 161.994 125.978 161.894 126.668C161.755 127.616 161.554 128.564 161.506 129.519C161.299 133.635 160.977 137.749 161.805 141.851C162.24 144.014 162.912 146.054 164.237 147.832C165.001 148.856 165.922 149.789 167.201 150.089C168.976 150.504 170.783 150.804 172.588 151.073C175.161 151.455 177.739 151.812 180.325 152.092C184.267 152.519 188.215 152.894 192.164 153.244C194.058 153.411 195.961 153.487 197.86 153.569C203.045 153.79 208.229 153.994 213.414 154.201C214.082 154.226 214.58 153.963 214.876 153.325C215.842 151.249 216.905 149.215 217.779 147.101C218.85 144.508 219.895 141.89 220.721 139.213C221.847 135.57 222.882 131.89 223.711 128.171C224.366 125.229 224.676 122.208 225.097 119.217C225.728 114.723 225.754 110.198 225.666 105.671C225.582 101.26 225.204 96.8712 224.418 92.5289C223.898 89.6505 223.319 86.7777 222.625 83.9359C222.098 81.7781 221.411 79.6541 220.682 77.554C219.754 74.8811 218.845 72.1884 217.684 69.6126C216.229 66.3809 214.608 63.2153 212.905 60.1046C211.581 57.6893 210.078 55.364 208.555 53.0655C206.159 49.4453 203.458 46.0531 200.565 42.8143C197.567 39.4601 194.381 36.2945 190.949 33.3823C187.532 30.4842 183.972 27.769 180.162 25.4029C177.801 23.9377 175.385 22.5554 172.959 21.2028C171.45 20.3625 169.888 19.6137 168.322 18.8831C166.78 18.1653 165.21 17.5094 163.642 16.8535C162.459 16.3594 161.267 15.8851 160.065 15.4445C158.796 14.9786 157.514 14.5465 156.227 14.1327C155.339 13.8469 154.435 13.6077 153.534 13.3613C151.843 12.8983 150.16 12.4028 148.455 12.0017C146.951 11.6498 145.429 11.3316 143.9 11.1318C140.108 10.6377 136.317 9.98886 132.508 9.8284C127.871 9.63416 123.207 9.72142 118.571 9.98041C115.305 10.1634 112.058 10.7855 108.818 11.3049C106.741 11.6371 104.688 12.1269 102.63 12.5703C101.83 12.742 101.034 12.9461 100.256 13.1938C98.2534 13.8301 96.2555 14.4789 94.2702 15.1616C92.5726 15.7471 90.8666 16.3256 89.2113 17.0182C87.3614 17.7937 85.5383 18.6453 83.7505 19.5546C81.1279 20.8875 78.4927 22.2092 75.9647 23.7068C73.4902 25.1735 71.0932 26.7851 68.7513 28.4573C63.2228 32.4069 58.1794 36.9251 53.6491 41.9796C51.2762 44.6272 49.0273 47.4001 46.9025 50.249C44.9468 52.8712 43.1336 55.6145 41.436 58.4128C39.9231 60.9083 38.5992 63.5236 37.2978 66.1402C36.3841 67.9785 35.6185 69.8941 34.8459 71.7986C34.2057 73.3792 33.6178 74.9824 33.0707 76.5983C32.3827 78.6322 31.6946 80.6717 31.125 82.7408C30.6033 84.6312 30.1944 86.5567 29.8165 88.4822C29.2991 91.1172 28.7097 93.7507 28.4221 96.4152C28.047 99.882 27.8651 103.374 27.7326 106.859C27.569 111.151 27.8397 115.435 28.3205 119.702C28.494 121.236 28.6886 122.77 28.9452 124.293C29.1835 125.698 29.5176 127.087 29.8066 128.483C30.0492 129.649 30.2536 130.826 30.5356 131.983C30.9078 133.503 31.3026 135.02 31.7552 136.519C32.2262 138.084 32.7493 139.635 33.3034 141.172C33.8885 142.798 34.5089 144.413 35.1631 146.013C35.799 147.57 36.5096 149.096 37.1638 150.645C37.4233 151.257 37.9013 151.449 38.43 151.029C39.8964 149.864 41.4064 148.745 42.7812 147.48C46.9504 143.636 50.4556 139.192 53.9311 134.744C57.4321 130.262 60.785 125.664 64.1322 121.067C66.6279 117.64 69.0389 114.15 71.4387 110.655C73.0404 108.322 74.549 105.923 76.1113 103.561C77.6834 101.181 79.3105 98.8362 80.8403 96.4307C83.1893 92.7372 85.5214 89.0312 87.7787 85.2815C90.2532 81.1728 92.6699 77.0276 95.0429 72.8598C96.3147 70.6261 97.7782 68.5527 99.5435 66.6906C101.857 64.2471 104.426 62.1033 107.377 60.4762C109.749 59.1686 112.14 57.8582 114.64 56.8321C117.076 55.8341 119.638 55.1121 122.186 54.4238C124.535 53.789 126.929 53.3062 129.322 52.8544C134.117 51.9479 138.966 51.7705 143.84 51.8043C152.201 51.862 160.564 51.8198 168.926 51.8198ZM243.872 154.733C243.852 154.713 243.832 154.692 243.811 154.672V161.053C243.832 161.053 243.852 161.053 243.872 161.053V154.733Z" fill="#D2232A"/>
</svg>
